 <svg version="1.0" xmlns="http://www.w3.org/2000/svg"  width="32.000000pt" height="32.000000pt" viewBox="0 0 54.000000 54.000000"  preserveAspectRatio="xMidYMid meet">  <g transform="translate(0.000000,54.000000) scale(0.100000,-0.100000)" fill="#23a432" stroke="none"> <path d="M325 526 c-48 -21 -88 -74 -80 -105 14 -55 17 -99 6 -105 -7 -5 -11 7 -11 37 0 45 -18 70 -67 96 -27 14 -123 15 -123 1 0 -5 4 -10 9 -10 5 0 23 -22 40 -48 29 -46 64 -72 96 -72 25 0 17 17 -30 58 -25 22 -45 42 -45 45 0 16 45 -11 74 -45 45 -52 60 -109 48 -176 -5 -30 -6 -68 -1 -89 5 -21 11 -55 14 -75 7 -48 25 -50 25 -3 0 60 105 154 173 155 30 0 14 -23 -24 -34 -47 -15 -99 -48 -99 -62 0 -17 35 -27 68 -19 32 7 142 100 142 120 0 8 -22 21 -51 29 -92 28 -189 -13 -189 -78 0 -17 -7 -39 -14 -49 -12 -16 -14 -14 -18 25 -8 79 45 178 114 214 33 17 55 8 24 -10 -36 -21 -101 -84 -94 -92 18 -17 95 27 131 76 21 28 42 50 47 50 6 0 10 4 10 9 0 16 -76 23 -118 11 -23 -6 -55 -22 -72 -36 -26 -22 -30 -33 -28 -65 1 -22 -3 -44 -10 -51 -15 -15 -15 -8 -2 101 11 85 35 151 58 159 8 2 2 -18 -15 -52 -28 -57 -28 -71 1 -60 21 8 41 47 50 97 4 21 10 45 13 53 6 17 -12 17 -52 0z"/> <path d="M43 299 c-18 -5 -35 -14 -38 -19 -9 -15 72 -107 112 -125 28 -14 40 -15 60 -6 22 10 23 14 12 28 -19 22 -86 63 -104 63 -8 0 -15 5 -15 10 0 31 89 -9 130 -58 l29 -36 -5 40 c-10 77 -13 81 -54 98 -44 18 -78 19 -127 5z"/> </g> </svg> 